<svg width="81" height="81" viewBox="0 0 81 81" fill="none" xmlns="http://www.w3.org/2000/svg">
<path fill-rule="evenodd" clip-rule="evenodd" d="M44.4052 24.2041C46.9057 21.7036 50.2971 20.2988 53.8333 20.2988C56.4704 20.2988 59.0483 21.0808 61.2409 22.5459C63.4336 24.011 65.1426 26.0934 66.1517 28.5297C67.1609 30.9661 67.4249 33.647 66.9105 36.2334C66.6166 37.7109 66.0761 39.1198 65.3191 40.4039L72.857 47.9418C74.1588 49.2436 74.1588 51.3541 72.857 52.6558C71.5553 53.9576 69.4447 53.9576 68.143 52.6558L60.605 45.1179C59.3209 45.8749 57.9121 46.4154 56.4345 46.7093C53.8481 47.2238 51.1672 46.9597 48.7309 45.9506C46.2945 44.9414 44.2122 43.2324 42.7471 41.0398C41.282 38.8471 40.5 36.2692 40.5 33.6322C40.5 30.0959 41.9048 26.7046 44.4052 24.2041ZM53.8333 26.9655C52.0652 26.9655 50.3695 27.6679 49.1193 28.9181C47.869 30.1684 47.1667 31.864 47.1667 33.6322C47.1667 34.9507 47.5577 36.2396 48.2902 37.336C49.0227 38.4323 50.0639 39.2868 51.2821 39.7914C52.5003 40.2959 53.8407 40.428 55.1339 40.1707C56.4271 39.9135 57.615 39.2786 58.5474 38.3462C59.4797 37.4139 60.1147 36.226 60.3719 34.9328C60.6291 33.6396 60.4971 32.2991 59.9925 31.0809C59.4879 29.8628 58.6335 28.8216 57.5371 28.089C56.4408 27.3565 55.1519 26.9655 53.8333 26.9655ZM20.5 43.6322C20.5 41.7912 21.9924 40.2988 23.8333 40.2988H30.5C32.3409 40.2988 33.8333 41.7912 33.8333 43.6322C33.8333 45.4731 32.3409 46.9655 30.5 46.9655H23.8333C21.9924 46.9655 20.5 45.4731 20.5 43.6322ZM20.5 56.9655C20.5 55.1245 21.9924 53.6322 23.8333 53.6322H43.8333C45.6743 53.6322 47.1667 55.1245 47.1667 56.9655C47.1667 58.8064 45.6743 60.2988 43.8333 60.2988H23.8333C21.9924 60.2988 20.5 58.8064 20.5 56.9655Z" fill="#7191E6"/>
<path fill-rule="evenodd" clip-rule="evenodd" d="M9.12059 8.91844C10.3708 7.6682 12.0665 6.96582 13.8346 6.96582H53.8346C55.6756 6.96582 57.168 8.4582 57.168 10.2992C57.168 12.1401 55.6756 13.6325 53.8346 13.6325H13.8346V66.9658H53.8346V56.9658C53.8346 55.1249 55.327 53.6325 57.168 53.6325C59.0089 53.6325 60.5013 55.1249 60.5013 56.9658V66.9658C60.5013 68.7339 59.7989 70.4296 58.5487 71.6799C57.2984 72.9301 55.6027 73.6325 53.8346 73.6325H13.8346C12.0665 73.6325 10.3708 72.9301 9.12059 71.6799C7.87035 70.4296 7.16797 68.7339 7.16797 66.9658V13.6325C7.16797 11.8644 7.87035 10.1687 9.12059 8.91844Z" fill="#7191E6"/>
</svg>
