<svg width="24" height="25" viewBox="0 0 24 25" fill="none" xmlns="http://www.w3.org/2000/svg">
<path fill-rule="evenodd" clip-rule="evenodd" d="M12 21.5996C10.8181 21.5996 9.64778 21.3668 8.55585 20.9145C7.46392 20.4622 6.47177 19.7993 5.63604 18.9636C4.80031 18.1278 4.13738 17.1357 3.68508 16.0438C3.23279 14.9518 3 13.7815 3 12.5996C3 11.4177 3.23279 10.2474 3.68508 9.15546C4.13738 8.06353 4.80031 7.07138 5.63604 6.23565C6.47177 5.39992 7.46392 4.73699 8.55585 4.28469C9.64778 3.8324 10.8181 3.59961 12 3.59961C14.3869 3.59961 16.6761 4.54782 18.364 6.23565C20.0518 7.92348 21 10.2127 21 12.5996C21 14.9866 20.0518 17.2757 18.364 18.9636C16.6761 20.6514 14.3869 21.5996 12 21.5996ZM10.409 14.7496L16.137 9.02261C16.3076 8.86363 16.5333 8.77709 16.7664 8.7812C16.9996 8.78531 17.222 8.87977 17.3869 9.04466C17.5518 9.20956 17.6463 9.43202 17.6504 9.66518C17.6545 9.89834 17.568 10.124 17.409 10.2946L11.116 16.5886C10.9285 16.7761 10.6742 16.8814 10.409 16.8814C10.1438 16.8814 9.88953 16.7761 9.702 16.5886L6.59 13.4766C6.43102 13.306 6.34448 13.0803 6.34859 12.8472C6.3527 12.614 6.44716 12.3916 6.61205 12.2267C6.77695 12.0618 6.99941 11.9673 7.23257 11.9632C7.46573 11.9591 7.69139 12.0456 7.862 12.2046L10.409 14.7496Z" fill="#34C759"/>
</svg>
