<svg width="18" height="23" viewBox="0 0 18 23" fill="none" xmlns="http://www.w3.org/2000/svg">
<path d="M1 22.2988H17C17.2652 22.2988 17.5196 22.1935 17.7071 22.0059C17.8946 21.8184 18 21.564 18 21.2988V5.29883C17.9999 5.03363 17.8946 4.77932 17.707 4.59183L13.707 0.591828C13.5195 0.404279 13.2652 0.298885 13 0.298828H1C0.734784 0.298828 0.48043 0.404185 0.292893 0.591721C0.105357 0.779258 0 1.03361 0 1.29883V21.2988C0 21.564 0.105357 21.8184 0.292893 22.0059C0.48043 22.1935 0.734784 22.2988 1 22.2988ZM2 2.29883H12.586L16 5.71283V20.2988H2V2.29883ZM13 11.2988C13 11.564 12.8946 11.8184 12.7071 12.0059C12.5196 12.1935 12.2652 12.2988 12 12.2988H10V14.2988C10 14.564 9.89464 14.8184 9.70711 15.0059C9.51957 15.1935 9.26522 15.2988 9 15.2988C8.73478 15.2988 8.48043 15.1935 8.29289 15.0059C8.10536 14.8184 8 14.564 8 14.2988V12.2988H6C5.73478 12.2988 5.48043 12.1935 5.29289 12.0059C5.10536 11.8184 5 11.564 5 11.2988C5 11.0336 5.10536 10.7793 5.29289 10.5917C5.48043 10.4042 5.73478 10.2988 6 10.2988H8V8.29883C8 8.03361 8.10536 7.77926 8.29289 7.59172C8.48043 7.40419 8.73478 7.29883 9 7.29883C9.26522 7.29883 9.51957 7.40419 9.70711 7.59172C9.89464 7.77926 10 8.03361 10 8.29883V10.2988H12C12.2652 10.2988 12.5196 10.4042 12.7071 10.5917C12.8946 10.7793 13 11.0336 13 11.2988Z" fill="white"/>
</svg>
