<svg width="20" height="21" viewBox="0 0 20 21" fill="none" xmlns="http://www.w3.org/2000/svg">
<g clip-path="url(#clip0_1313_6255)">
<path d="M7.49329 9.01035H6.16828C5.42662 9.01035 5.05995 8.11035 5.58495 7.58535L9.40995 3.76035C9.73495 3.43535 10.26 3.43535 10.585 3.76035L14.41 7.58535C14.935 8.11035 14.56 9.01035 13.8183 9.01035H12.4933V13.177C12.4933 13.6353 12.1183 14.0103 11.66 14.0103H8.32662C7.86829 14.0103 7.49329 13.6353 7.49329 13.177V9.01035Z" fill="white"/>
<path d="M4.99936 17.6832C4.54102 17.6832 4.16602 17.3082 4.16602 16.8499C4.16602 16.3916 4.54102 16.0166 4.99936 16.0166H14.9993C15.4577 16.0166 15.8327 16.3916 15.8327 16.8499C15.8327 17.3082 15.4577 17.6832 14.9993 17.6832H4.99936Z" fill="white"/>
</g>
<defs>
<clipPath id="clip0_1313_6255">
<rect width="20" height="20" fill="white" transform="translate(0 0.599609)"/>
</clipPath>
</defs>
</svg>
